<svg width="133" height="46" viewBox="0 0 133 46" fill="none" xmlns="http://www.w3.org/2000/svg">
<g filter="url(#filter0_d_308_13)">
<path d="M23.8945 9.72266C23.8945 11.3893 23.4779 12.7956 22.6445 13.9414C21.8112 15.0742 20.6914 15.9336 19.2852 16.5195C17.8789 17.0924 16.3164 17.3789 14.5977 17.3789C14.2331 17.3789 13.8555 17.3594 13.4648 17.3203C13.0872 17.2682 12.6966 17.1966 12.293 17.1055L12.1758 15.3477C12.6315 15.4258 13.0091 15.4779 13.3086 15.5039C13.6211 15.5299 13.9401 15.543 14.2656 15.543C16.2188 15.543 17.7031 15.0938 18.7188 14.1953C19.7344 13.2839 20.2422 11.9948 20.2422 10.3281C20.2422 8.97396 19.7539 7.84766 18.7773 6.94922C17.8138 6.03776 16.1862 5.58203 13.8945 5.58203C12.7487 5.58203 11.4857 5.66667 10.1055 5.83594C8.72526 5.99219 7.37109 6.17448 6.04297 6.38281L5.82812 4.97656C7.10417 4.67708 8.45182 4.41016 9.87109 4.17578C11.2904 3.92839 12.8854 3.80469 14.6562 3.80469C17.8464 3.80469 20.1836 4.37109 21.668 5.50391C23.1523 6.63672 23.8945 8.04297 23.8945 9.72266ZM28.0352 28.1797C27.1758 28.4661 26.2904 28.7201 25.3789 28.9414C24.4805 29.1628 23.7773 29.2734 23.2695 29.2734C22.9049 29.2734 22.5404 29.1693 22.1758 28.9609C21.8112 28.7396 21.5378 28.4857 21.3555 28.1992L15.3984 17.0469L17.7227 15.7578L24.4023 25.9922C24.806 26.5521 25.2487 26.9036 25.7305 27.0469C26.2253 27.1901 26.9154 27.2227 27.8008 27.1445L28.0352 28.1797ZM6.04297 29V27.9648C6.91536 27.7826 7.59245 27.5807 8.07422 27.3594C8.56901 27.138 8.81641 26.9427 8.81641 26.7734V5.28906H12.5273V26.7734C12.5273 26.9297 12.7552 27.125 13.2109 27.3594C13.6667 27.5807 14.3698 27.7826 15.3203 27.9648V29H6.04297ZM47.6242 27.2031C46.5174 27.9583 45.5279 28.5443 44.6555 28.9609C43.7961 29.3776 43.1646 29.5859 42.7609 29.5859C42.2792 29.5859 41.882 29.2474 41.5695 28.5703C41.2701 27.8802 41.1203 26.9557 41.1203 25.7969V15.3867C41.1203 14.5273 40.9055 13.8112 40.4758 13.2383C40.0591 12.6523 39.2648 12.3724 38.093 12.3984C37.3247 12.4115 36.6216 12.6523 35.9836 13.1211C35.3456 13.5898 35.0656 14.2148 35.1437 14.9961C35.1568 15.1263 34.994 15.2695 34.6555 15.4258C34.3299 15.582 33.9263 15.7318 33.4445 15.875C32.9758 16.0182 32.5266 16.1289 32.0969 16.207C31.6802 16.2852 31.3937 16.3047 31.2375 16.2656L30.925 15.4062C31.3286 14.4818 32.0057 13.6289 32.9562 12.8477C33.9198 12.0664 35.0135 11.4414 36.2375 10.9727C37.4745 10.4909 38.7049 10.25 39.9289 10.25C41.4654 10.25 42.6307 10.6536 43.425 11.4609C44.2323 12.2552 44.6359 13.3164 44.6359 14.6445V25.1328C44.6359 26.1484 44.8964 26.6562 45.4172 26.6562C45.5995 26.6562 45.8273 26.6237 46.1008 26.5586C46.3742 26.4805 46.7714 26.3372 47.2922 26.1289L47.6242 27.2031ZM41.3156 19.5664C39.9484 19.7878 38.8807 20.0026 38.1125 20.2109C37.3443 20.4193 36.7583 20.6406 36.3547 20.875C35.951 21.1094 35.6125 21.3633 35.3391 21.6367C35.0005 21.9883 34.7271 22.3789 34.5187 22.8086C34.3104 23.2383 34.2062 23.7461 34.2062 24.332C34.2062 24.9831 34.3234 25.4844 34.5578 25.8359C34.8052 26.1875 35.0852 26.4284 35.3977 26.5586C35.7232 26.6888 35.9966 26.7539 36.218 26.7539C36.9211 26.7539 37.6893 26.5651 38.5227 26.1875C39.356 25.7969 40.287 25.1458 41.3156 24.2344L41.4719 25.9336C40.2479 27.2487 39.0305 28.1862 37.8195 28.7461C36.6086 29.306 35.5604 29.5859 34.675 29.5859C34.0109 29.5859 33.3534 29.4362 32.7023 29.1367C32.0513 28.8372 31.5044 28.3685 31.0617 27.7305C30.632 27.0924 30.4172 26.2721 30.4172 25.2695C30.4172 24.306 30.5865 23.5052 30.925 22.8672C31.2635 22.2161 31.6737 21.6497 32.1555 21.168C32.5721 20.7383 33.093 20.3411 33.718 19.9766C34.343 19.599 35.2414 19.2474 36.4133 18.9219C37.5982 18.5833 39.2323 18.2578 41.3156 17.9453V19.5664ZM61.2758 29.5859C59.6612 29.5859 57.8643 28.7852 55.8852 27.1836V36.1289C55.8852 36.3372 56.126 36.5456 56.6078 36.7539C57.1026 36.9622 57.962 37.1576 59.1859 37.3398V38.375H49.6937V37.3398C50.5531 37.1315 51.2107 36.9297 51.6664 36.7344C52.1352 36.5521 52.3695 36.3503 52.3695 36.1289V15.25C52.3695 14.599 52.3174 14.1042 52.2133 13.7656C52.1091 13.4141 51.8682 13.1667 51.4906 13.0234C51.113 12.8672 50.5141 12.7695 49.6937 12.7305V11.7539C50.7875 11.5586 51.712 11.3503 52.4672 11.1289C53.2224 10.9076 54.0232 10.6146 54.8695 10.25L55.5922 10.9727L55.768 14.3516C57.1221 12.8932 58.3917 11.8451 59.5766 11.207C60.7745 10.569 61.7445 10.25 62.4867 10.25C64.2576 10.25 65.7484 11.0378 66.9594 12.6133C68.1703 14.1758 68.7758 16.4154 68.7758 19.332C68.7758 20.5169 68.5544 21.7148 68.1117 22.9258C67.682 24.1237 67.1026 25.2305 66.3734 26.2461C65.6443 27.2487 64.837 28.056 63.9516 28.668C63.0661 29.2799 62.1742 29.5859 61.2758 29.5859ZM60.8266 12.9844C60.3578 12.9844 59.7003 13.2383 58.8539 13.7461C58.0206 14.2409 57.031 15.2044 55.8852 16.6367V24.7422C57.1221 25.6016 58.1443 26.1615 58.9516 26.4219C59.7589 26.6693 60.501 26.793 61.1781 26.793C62.4411 26.793 63.4828 26.2721 64.3031 25.2305C65.1365 24.1888 65.5531 22.6719 65.5531 20.6797C65.5531 19.1172 65.3253 17.763 64.8695 16.6172C64.4268 15.4583 63.8409 14.5664 63.1117 13.9414C62.3956 13.3034 61.6339 12.9844 60.8266 12.9844ZM90.0055 19.5273C90.0055 20.8294 89.7646 22.0794 89.2828 23.2773C88.801 24.4753 88.137 25.5495 87.2906 26.5C86.4443 27.4505 85.4677 28.2057 84.3609 28.7656C83.2672 29.3125 82.1148 29.5859 80.9039 29.5859C79.2112 29.5859 77.7333 29.1823 76.4703 28.375C75.2203 27.5677 74.2503 26.4674 73.5602 25.0742C72.8701 23.681 72.525 22.099 72.525 20.3281C72.525 19.0391 72.7529 17.7956 73.2086 16.5977C73.6773 15.3867 74.3284 14.306 75.1617 13.3555C75.9951 12.3919 76.9651 11.6367 78.0719 11.0898C79.1786 10.5299 80.3766 10.25 81.6656 10.25C83.3453 10.25 84.8102 10.6536 86.0602 11.4609C87.3102 12.2682 88.2802 13.3685 88.9703 14.7617C89.6604 16.1549 90.0055 17.7435 90.0055 19.5273ZM86.3531 20.2109C86.3531 18.8307 86.0992 17.5612 85.5914 16.4023C85.0836 15.2305 84.426 14.2865 83.6188 13.5703C82.8245 12.8542 81.9846 12.4961 81.0992 12.4961C79.8492 12.4961 78.8661 12.8151 78.15 13.4531C77.4469 14.0911 76.9456 14.9635 76.6461 16.0703C76.3466 17.1641 76.1969 18.3945 76.1969 19.7617C76.1969 21.1289 76.4638 22.3919 76.9977 23.5508C77.5445 24.6966 78.2216 25.6146 79.0289 26.3047C79.8362 26.9948 80.6435 27.3398 81.4508 27.3398C83.1956 27.3398 84.4456 26.7018 85.2008 25.4258C85.969 24.1497 86.3531 22.4115 86.3531 20.2109ZM106.489 23.4727C106.489 24.8529 106.209 25.9531 105.649 26.7734C105.102 27.5938 104.425 28.2057 103.618 28.6094C102.824 29.013 102.036 29.2734 101.255 29.3906C100.486 29.5208 99.881 29.5859 99.4383 29.5859C98.7482 29.5859 97.9279 29.4688 96.9773 29.2344C96.0398 29.013 95.1349 28.6549 94.2625 28.1602C94.1714 28.1081 94.1062 27.8932 94.0672 27.5156C94.0411 27.125 94.0346 26.6562 94.0477 26.1094C94.0607 25.5625 94.0932 25.0221 94.1453 24.4883C94.2104 23.9414 94.295 23.4857 94.3992 23.1211L95.4734 23.3359C95.6036 24.5339 96.1245 25.5234 97.0359 26.3047C97.9474 27.0859 99.0411 27.4766 100.317 27.4766C101.242 27.4766 101.977 27.2292 102.524 26.7344C103.084 26.2396 103.364 25.5625 103.364 24.7031C103.364 23.7786 102.96 23.0299 102.153 22.457C101.359 21.8711 100.167 21.1615 98.5789 20.3281C97.8497 19.9505 97.1531 19.5404 96.4891 19.0977C95.825 18.6419 95.2781 18.1146 94.8484 17.5156C94.4318 16.9167 94.2234 16.2005 94.2234 15.3672C94.2234 14.2865 94.5164 13.3685 95.1023 12.6133C95.7013 11.8451 96.4695 11.2591 97.407 10.8555C98.3575 10.4518 99.3602 10.25 100.415 10.25C101.326 10.25 102.309 10.3867 103.364 10.6602C104.432 10.9336 105.239 11.2982 105.786 11.7539C105.89 11.8451 105.884 12.1315 105.766 12.6133C105.649 13.082 105.486 13.5703 105.278 14.0781C105.083 14.5859 104.914 14.931 104.77 15.1133L103.813 14.957C103.292 13.9674 102.7 13.2448 102.036 12.7891C101.385 12.3333 100.708 12.1055 100.005 12.1055C99.1714 12.1055 98.5203 12.3398 98.0516 12.8086C97.5828 13.2643 97.3484 13.7591 97.3484 14.293C97.3484 15.0352 97.7 15.6602 98.4031 16.168C99.1193 16.6758 100.22 17.3138 101.704 18.082C102.459 18.4727 103.201 18.9023 103.93 19.3711C104.673 19.8268 105.285 20.3802 105.766 21.0312C106.248 21.6823 106.489 22.4961 106.489 23.4727ZM127.66 27.2031C126.553 27.9583 125.564 28.5443 124.691 28.9609C123.832 29.3776 123.201 29.5859 122.797 29.5859C122.315 29.5859 121.918 29.2474 121.605 28.5703C121.306 27.8802 121.156 26.9557 121.156 25.7969V15.3867C121.156 14.5273 120.941 13.8112 120.512 13.2383C120.095 12.6523 119.301 12.3724 118.129 12.3984C117.361 12.4115 116.658 12.6523 116.02 13.1211C115.382 13.5898 115.102 14.2148 115.18 14.9961C115.193 15.1263 115.03 15.2695 114.691 15.4258C114.366 15.582 113.962 15.7318 113.48 15.875C113.012 16.0182 112.562 16.1289 112.133 16.207C111.716 16.2852 111.43 16.3047 111.273 16.2656L110.961 15.4062C111.365 14.4818 112.042 13.6289 112.992 12.8477C113.956 12.0664 115.049 11.4414 116.273 10.9727C117.51 10.4909 118.741 10.25 119.965 10.25C121.501 10.25 122.667 10.6536 123.461 11.4609C124.268 12.2552 124.672 13.3164 124.672 14.6445V25.1328C124.672 26.1484 124.932 26.6562 125.453 26.6562C125.635 26.6562 125.863 26.6237 126.137 26.5586C126.41 26.4805 126.807 26.3372 127.328 26.1289L127.66 27.2031ZM121.352 19.5664C119.984 19.7878 118.917 20.0026 118.148 20.2109C117.38 20.4193 116.794 20.6406 116.391 20.875C115.987 21.1094 115.648 21.3633 115.375 21.6367C115.036 21.9883 114.763 22.3789 114.555 22.8086C114.346 23.2383 114.242 23.7461 114.242 24.332C114.242 24.9831 114.359 25.4844 114.594 25.8359C114.841 26.1875 115.121 26.4284 115.434 26.5586C115.759 26.6888 116.033 26.7539 116.254 26.7539C116.957 26.7539 117.725 26.5651 118.559 26.1875C119.392 25.7969 120.323 25.1458 121.352 24.2344L121.508 25.9336C120.284 27.2487 119.066 28.1862 117.855 28.7461C116.645 29.306 115.596 29.5859 114.711 29.5859C114.047 29.5859 113.389 29.4362 112.738 29.1367C112.087 28.8372 111.54 28.3685 111.098 27.7305C110.668 27.0924 110.453 26.2721 110.453 25.2695C110.453 24.306 110.622 23.5052 110.961 22.8672C111.299 22.2161 111.71 21.6497 112.191 21.168C112.608 20.7383 113.129 20.3411 113.754 19.9766C114.379 19.599 115.277 19.2474 116.449 18.9219C117.634 18.5833 119.268 18.2578 121.352 17.9453V19.5664Z" fill="url(#paint0_linear_308_13)"/>
</g>
<defs>
<filter id="filter0_d_308_13" x="0.828125" y="0.804688" width="131.832" height="44.5703" filterUnits="userSpaceOnUse" color-interpolation-filters="sRGB">
<feFlood flood-opacity="0" result="BackgroundImageFix"/>
<feColorMatrix in="SourceAlpha" type="matrix" values="0 0 0 0 0 0 0 0 0 0 0 0 0 0 0 0 0 0 127 0" result="hardAlpha"/>
<feOffset dy="2"/>
<feGaussianBlur stdDeviation="2.5"/>
<feComposite in2="hardAlpha" operator="out"/>
<feColorMatrix type="matrix" values="0 0 0 0 0 0 0 0 0 0 0 0 0 0 0 0 0 0 0.25 0"/>
<feBlend mode="normal" in2="BackgroundImageFix" result="effect1_dropShadow_308_13"/>
<feBlend mode="normal" in="SourceGraphic" in2="effect1_dropShadow_308_13" result="shape"/>
</filter>
<linearGradient id="paint0_linear_308_13" x1="63.5" y1="-30.5" x2="63.5" y2="57" gradientUnits="userSpaceOnUse">
<stop stop-color="#80C5D3"/>
<stop offset="1" stop-color="#17505B"/>
</linearGradient>
</defs>
</svg>
