<svg width="42" height="43" viewBox="0 0 42 43" fill="none" xmlns="http://www.w3.org/2000/svg">
<path d="M23.0866 20.0701C21.6533 21.1787 22.0448 22.2138 20.7824 22.1719C19.6331 22.1338 19.3034 20.7271 18.6114 20.2943C17.4091 19.5425 15.8457 19.0881 15.8112 18.2444C15.7396 17.7321 16.7312 16.1289 16.7312 16.1289C15.6812 14.9163 15.9747 11.4639 16.6252 11.2183C17.191 11.0046 19.5695 13.597 19.5695 13.597L21.7093 13.607C21.7093 13.607 23.8575 11.1079 24.6602 11.2666C25.7522 12.3713 24.9723 15.6988 24.6119 16.1513C24.7373 16.6314 25.3837 17.2292 25.5193 18.2609C25.5234 19.2127 23.8974 19.443 23.0866 20.0701Z" fill="#0E1E24"/>
<path d="M26.6895 24.2206C23.3264 19.3198 17.8827 26.4538 15.6028 20.2167C14.1887 24.4074 17.3954 25.7236 18.9604 26.366C20.556 27.0209 24.2415 25.883 23.677 30.0746C25.4497 29.6922 28.4839 26.8354 26.6895 24.2206Z" fill="#0F2026"/>
<path d="M21.951 25.8686C23.043 26.3234 24.862 26.2016 24.7921 28.2843C25.2593 28.1752 26.1379 27.1219 25.9744 25.475C25.8387 24.1081 24.3987 22.8617 22.2301 23.0547C23.9257 23.6768 24.7717 24.7441 24.555 24.7929C24.2883 24.853 23.2557 24.6239 23.2023 24.7782C23.1649 24.8862 24.0069 25.5387 23.9469 25.7569C23.8782 26.0063 22.7944 25.5372 21.951 25.8686Z" fill="url(#paint0_linear_348_70)"/>
<defs>
<linearGradient id="paint0_linear_348_70" x1="24.2846" y1="23.2255" x2="24.2281" y2="28.4161" gradientUnits="userSpaceOnUse">
<stop stop-color="#CB286B"/>
<stop offset="1" stop-color="#62309F"/>
</linearGradient>
</defs>
</svg>
