<svg width="129" height="132" viewBox="0 0 129 132" fill="none" xmlns="http://www.w3.org/2000/svg">
<path d="M71.5162 62.9133C67.0372 66.3776 68.2605 69.6123 64.3157 69.4814C60.7241 69.3623 59.6937 64.9663 57.5312 63.614C53.7741 61.2644 48.8884 59.8445 48.7807 57.2078C48.5569 55.607 51.6557 50.5969 51.6557 50.5969C48.3743 46.8075 49.2916 36.0188 51.3244 35.2512C53.0926 34.5835 60.5252 42.6847 60.5252 42.6847L67.2121 42.716C67.2121 42.716 73.9254 34.9063 76.4336 35.4024C79.8461 38.8545 77.4091 49.2528 76.2827 50.667C76.6747 52.1672 78.6948 54.0355 79.1184 57.2596C79.1312 60.2338 74.05 60.9536 71.5162 62.9133Z" fill="#0E1E24"/>
<path d="M82.7743 75.8834C72.2644 60.5685 55.2529 82.862 48.1283 63.3712C43.7092 76.4672 53.7301 80.5803 58.6207 82.5877C63.6071 84.6344 75.1241 81.0784 73.3602 94.177C78.8997 92.9821 88.3817 84.0545 82.7743 75.8834Z" fill="#0F2026"/>
<path d="M67.9669 81.0334C71.3794 82.4547 77.0637 82.0742 76.8451 88.5825C78.3052 88.2417 81.0507 84.9502 80.5399 79.8037C80.1159 75.532 75.6159 71.6369 68.839 72.2402C74.1376 74.1842 76.7814 77.5195 76.1042 77.6721C75.2707 77.8599 72.0438 77.1439 71.8769 77.6261C71.7601 77.9636 74.3916 80.0027 74.2039 80.6846C73.9893 81.4639 70.6022 79.9981 67.9669 81.0334Z" fill="url(#paint0_linear_348_70)"/>
<defs>
<linearGradient id="paint0_linear_348_70" x1="75.2594" y1="72.7737" x2="75.0827" y2="88.9945" gradientUnits="userSpaceOnUse">
<stop stop-color="#CB286B"/>
<stop offset="1" stop-color="#62309F"/>
</linearGradient>
</defs>
</svg>
