<svg width="137" height="29" viewBox="0 0 137 29" fill="none" xmlns="http://www.w3.org/2000/svg">
<path d="M14.3789 28V27.0684C15.1641 26.9043 15.7734 26.7227 16.207 26.5234C16.6523 26.3242 16.875 26.1484 16.875 25.9961V7.87305C16.875 7.73242 16.6699 7.55664 16.2598 7.3457C15.8496 7.13477 15.2227 6.94727 14.3789 6.7832V5.85156H22.7285V6.7832C21.9316 6.94727 21.3105 7.12891 20.8652 7.32812C20.4316 7.52734 20.2148 7.70898 20.2148 7.87305V25.9961C20.2148 26.1367 20.4199 26.3125 20.8301 26.5234C21.252 26.7227 21.8848 26.9043 22.7285 27.0684V28H14.3789ZM6.1875 17.2773V15.5195H17.2266V17.2773H6.1875ZM0.84375 28V27.0684C1.62891 26.9043 2.23828 26.7227 2.67188 26.5234C3.11719 26.3242 3.33984 26.1484 3.33984 25.9961V7.87305C3.33984 7.73242 3.13477 7.55664 2.72461 7.3457C2.31445 7.13477 1.6875 6.94727 0.84375 6.7832V5.85156H9.19336V6.7832C8.39648 6.94727 7.77539 7.12891 7.33008 7.32812C6.89648 7.52734 6.67969 7.70898 6.67969 7.87305V25.9961C6.67969 26.1367 6.88477 26.3125 7.29492 26.5234C7.70508 26.7227 8.33789 26.9043 9.19336 27.0684V28H0.84375ZM40.2005 18.2441C39.9895 18.4902 39.679 18.7305 39.2688 18.9648C38.8587 19.1875 38.4661 19.3691 38.0911 19.5098H27.8255L27.8606 17.8047H36.2102C36.4798 17.8047 36.6555 17.7637 36.7376 17.6816C36.8313 17.5879 36.8782 17.418 36.8782 17.1719C36.8782 16.7383 36.7845 16.1992 36.597 15.5547C36.4212 14.8984 36.0872 14.3184 35.595 13.8145C35.1028 13.3105 34.3821 13.0586 33.4329 13.0586C32.0735 13.0586 31.0188 13.6445 30.2688 14.8164C29.5305 15.9883 29.1614 17.4824 29.1614 19.2988C29.1614 20.5176 29.3548 21.6367 29.7415 22.6562C30.1282 23.6758 30.6907 24.4902 31.429 25.0996C32.1673 25.709 33.0579 26.0137 34.1009 26.0137C34.593 26.0137 35.0677 25.9668 35.5247 25.873C35.9934 25.7793 36.5266 25.5684 37.1243 25.2402C37.722 24.9121 38.4661 24.4023 39.3567 23.7109C39.5091 23.793 39.6555 23.9336 39.7962 24.1328C39.9485 24.332 40.0481 24.4785 40.095 24.5723C39.0403 25.6973 38.1321 26.5469 37.3704 27.1211C36.6087 27.6836 35.8821 28.0586 35.1907 28.2461C34.4993 28.4336 33.7317 28.5273 32.888 28.5273C31.6458 28.5273 30.4973 28.1875 29.4427 27.5078C28.388 26.8281 27.5384 25.873 26.8938 24.6426C26.261 23.4121 25.9446 21.9707 25.9446 20.3184C25.9446 18.7363 26.2727 17.2656 26.929 15.9062C27.597 14.5469 28.5345 13.4453 29.7415 12.6016C30.2923 12.2148 30.9544 11.875 31.7278 11.582C32.513 11.2773 33.263 11.125 33.9778 11.125C35.1262 11.125 36.093 11.3418 36.8782 11.7754C37.6751 12.1973 38.3196 12.7598 38.8118 13.4629C39.304 14.166 39.6555 14.9395 39.8665 15.7832C40.0891 16.6152 40.2005 17.4355 40.2005 18.2441ZM43.2759 28V27.0684C44.2837 26.8926 44.9634 26.7168 45.315 26.541C45.6783 26.3652 45.8599 26.1836 45.8599 25.9961V5.39453C45.8599 4.70313 45.7955 4.21094 45.6666 3.91797C45.5377 3.61328 45.2974 3.4082 44.9459 3.30273C44.606 3.19727 44.108 3.10938 43.4517 3.03906V2.16016C44.4009 1.99609 45.2564 1.81445 46.0181 1.61523C46.7798 1.41602 47.5591 1.12891 48.356 0.753906L49.024 1.38672V25.9961C49.024 26.1719 49.2173 26.3535 49.6041 26.541C49.9908 26.7285 50.6646 26.9043 51.6255 27.0684V28H43.2759ZM54.1209 28V27.0684C55.1287 26.8926 55.8084 26.7168 56.16 26.541C56.5233 26.3652 56.7049 26.1836 56.7049 25.9961V5.39453C56.7049 4.70313 56.6405 4.21094 56.5116 3.91797C56.3827 3.61328 56.1424 3.4082 55.7909 3.30273C55.451 3.19727 54.953 3.10938 54.2967 3.03906V2.16016C55.2459 1.99609 56.1014 1.81445 56.8631 1.61523C57.6248 1.41602 58.4041 1.12891 59.201 0.753906L59.869 1.38672V25.9961C59.869 26.1719 60.0623 26.3535 60.4491 26.541C60.8358 26.7285 61.5096 26.9043 62.4705 27.0684V28H54.1209ZM80.9972 19.4746C80.9972 20.6465 80.7804 21.7715 80.3468 22.8496C79.9132 23.9277 79.3155 24.8945 78.5538 25.75C77.7921 26.6055 76.9132 27.2852 75.9171 27.7891C74.9327 28.2812 73.8956 28.5273 72.8058 28.5273C71.2823 28.5273 69.9523 28.1641 68.8155 27.4375C67.6905 26.7109 66.8175 25.7207 66.1964 24.4668C65.5753 23.2129 65.2648 21.7891 65.2648 20.1953C65.2648 19.0352 65.4698 17.916 65.88 16.8379C66.3019 15.748 66.8878 14.7754 67.6378 13.9199C68.3878 13.0527 69.2609 12.373 70.257 11.8809C71.253 11.377 72.3312 11.125 73.4913 11.125C75.003 11.125 76.3214 11.4883 77.4464 12.2148C78.5714 12.9414 79.4445 13.9316 80.0655 15.1855C80.6866 16.4395 80.9972 17.8691 80.9972 19.4746ZM77.7101 20.0898C77.7101 18.8477 77.4816 17.7051 77.0245 16.6621C76.5675 15.6074 75.9757 14.7578 75.2491 14.1133C74.5343 13.4688 73.7784 13.1465 72.9816 13.1465C71.8566 13.1465 70.9718 13.4336 70.3273 14.0078C69.6945 14.582 69.2433 15.3672 68.9738 16.3633C68.7042 17.3477 68.5695 18.4551 68.5695 19.6855C68.5695 20.916 68.8097 22.0527 69.2902 23.0957C69.7823 24.127 70.3917 24.9531 71.1183 25.5742C71.8448 26.1953 72.5714 26.5059 73.298 26.5059C74.8683 26.5059 75.9933 25.9316 76.673 24.7832C77.3644 23.6348 77.7101 22.0703 77.7101 20.0898Z" fill="#F9F9F9"/>
<path d="M99.2602 6.32617C99.2484 6.72461 99.2016 7.20508 99.1195 7.76758C99.0492 8.31836 98.9613 8.85156 98.8559 9.36719C98.7621 9.88281 98.6684 10.293 98.5746 10.5977H97.5727C97.5375 9.51953 97.3969 8.75195 97.1508 8.29492C96.9164 7.83789 96.5766 7.60938 96.1312 7.60938H88.8187L89.3285 5.85156H98.6801L99.2602 6.32617ZM96.8168 15.6074C96.5941 15.959 96.3246 16.3457 96.0082 16.7676C95.6918 17.1777 95.4105 17.4707 95.1645 17.6465C94.8246 17.3066 94.4027 17.0605 93.8988 16.9082C93.4066 16.7559 92.6742 16.6797 91.7016 16.6797H87.5004L88.4672 15.0801H96.2719L96.8168 15.6074ZM83.8969 28V27.0684C84.682 26.9043 85.2914 26.7227 85.725 26.5234C86.1703 26.3242 86.393 26.1484 86.393 25.9961V7.87305C86.393 7.73242 86.1879 7.55664 85.7777 7.3457C85.3676 7.13477 84.7406 6.94727 83.8969 6.7832V5.85156H92.2816V6.7832C91.6488 6.86523 91.0629 6.96484 90.5238 7.08203C89.9965 7.1875 89.7328 7.32227 89.7328 7.48633V25.9961C89.7328 26.1367 89.9496 26.2949 90.3832 26.4707C90.8168 26.6465 91.6137 26.8457 92.7738 27.0684V28H83.8969ZM116.996 19.4746C116.996 20.6465 116.779 21.7715 116.345 22.8496C115.912 23.9277 115.314 24.8945 114.552 25.75C113.791 26.6055 112.912 27.2852 111.916 27.7891C110.931 28.2812 109.894 28.5273 108.804 28.5273C107.281 28.5273 105.951 28.1641 104.814 27.4375C103.689 26.7109 102.816 25.7207 102.195 24.4668C101.574 23.2129 101.263 21.7891 101.263 20.1953C101.263 19.0352 101.468 17.916 101.879 16.8379C102.3 15.748 102.886 14.7754 103.636 13.9199C104.386 13.0527 105.259 12.373 106.256 11.8809C107.252 11.377 108.33 11.125 109.49 11.125C111.002 11.125 112.32 11.4883 113.445 12.2148C114.57 12.9414 115.443 13.9316 116.064 15.1855C116.685 16.4395 116.996 17.8691 116.996 19.4746ZM113.709 20.0898C113.709 18.8477 113.48 17.7051 113.023 16.6621C112.566 15.6074 111.974 14.7578 111.248 14.1133C110.533 13.4688 109.777 13.1465 108.98 13.1465C107.855 13.1465 106.97 13.4336 106.326 14.0078C105.693 14.582 105.242 15.3672 104.972 16.3633C104.703 17.3477 104.568 18.4551 104.568 19.6855C104.568 20.916 104.808 22.0527 105.289 23.0957C105.781 24.127 106.39 24.9531 107.117 25.5742C107.843 26.1953 108.57 26.5059 109.297 26.5059C110.867 26.5059 111.992 25.9316 112.672 24.7832C113.363 23.6348 113.709 22.0703 113.709 20.0898ZM135.979 12.584C135.03 12.6543 134.31 12.8242 133.817 13.0938C133.337 13.3633 132.938 13.7148 132.622 14.1484L128.21 20.1777L127.067 18.8242L130.46 14.1133C130.858 13.5391 130.94 13.1582 130.706 12.9707C130.483 12.7832 130.009 12.6543 129.282 12.584V11.6523H135.979V12.584ZM128.808 28V27.0684C129.194 27.0332 129.54 26.9805 129.845 26.9102C130.149 26.8281 130.337 26.6875 130.407 26.4883C130.478 26.2773 130.36 25.9609 130.056 25.5391L121.759 14.1484C121.454 13.7266 121.12 13.3809 120.757 13.1113C120.394 12.8301 119.749 12.6543 118.823 12.584V11.6523H126.645V12.584C125.919 12.6543 125.427 12.7891 125.169 12.9883C124.923 13.1758 124.999 13.5508 125.397 14.1133L133.624 25.4336C133.882 25.7852 134.216 26.1191 134.626 26.4355C135.036 26.752 135.628 26.9629 136.401 27.0684V28H128.808ZM123.745 25.5391C123.44 25.9609 123.353 26.2773 123.481 26.4883C123.622 26.6875 123.874 26.8281 124.237 26.9102C124.601 26.9805 124.964 27.0332 125.327 27.0684V28H118.63V27.0684C119.544 26.9277 120.206 26.7109 120.616 26.418C121.026 26.125 121.36 25.7969 121.618 25.4336L126.206 19.2109L127.331 20.6172L123.745 25.5391Z" fill="#D9F4FA"/>
</svg>
