<svg width="171" height="235" viewBox="0 0 171 235" fill="none" xmlns="http://www.w3.org/2000/svg">
<path d="M112.24 98.4322C96.3543 110.858 100.629 122.371 86.6868 121.97C73.9931 121.605 70.4181 105.949 62.7948 101.164C49.5499 92.849 32.3017 87.8683 31.961 78.4692C31.1944 72.7654 42.2248 54.8509 42.2248 54.8509C30.6834 41.395 34.0904 2.91413 41.2878 0.143428C47.5483 -2.26659 73.6973 26.493 73.6973 26.493H97.3338C97.3338 26.493 121.183 -1.46325 130.041 0.263934C142.051 12.5149 133.278 49.6292 129.275 54.6903C130.638 60.0325 137.75 66.6601 139.198 78.1478C139.198 88.7519 121.226 91.403 112.24 98.4322Z" fill="#0E1E24"/>
<path d="M150.705 152.941C113.867 98.5709 53.5238 178.254 28.6908 108.955C12.9041 155.671 48.1874 170.153 65.407 177.221C82.9643 184.427 123.642 171.57 117.22 218.251C136.778 213.903 170.359 181.949 150.705 152.941Z" fill="#0F2026"/>
<path d="M135.321 161.019C140.745 163.279 149.8 162.624 149.407 173.091C151.735 172.532 156.129 167.219 155.351 158.947C154.705 152.082 147.566 145.853 136.77 146.874C145.194 149.96 149.382 155.303 148.302 155.553C146.974 155.861 141.84 154.734 141.571 155.511C141.382 156.054 145.559 159.313 145.255 160.411C144.908 161.666 139.525 159.334 135.321 161.019Z" fill="url(#paint0_linear_423_2)"/>
<defs>
<linearGradient id="paint0_linear_423_2" x1="146.991" y1="147.683" x2="146.827" y2="173.768" gradientUnits="userSpaceOnUse">
<stop stop-color="#CB286B"/>
<stop offset="1" stop-color="#62309F"/>
</linearGradient>
</defs>
</svg>
