<svg width="123" height="36" viewBox="0 0 123 36" fill="none" xmlns="http://www.w3.org/2000/svg">
<path d="M18.8945 6.72266C18.8945 8.38932 18.4779 9.79557 17.6445 10.9414C16.8112 12.0742 15.6914 12.9336 14.2852 13.5195C12.8789 14.0924 11.3164 14.3789 9.59766 14.3789C9.23307 14.3789 8.85547 14.3594 8.46484 14.3203C8.08724 14.2682 7.69661 14.1966 7.29297 14.1055L7.17578 12.3477C7.63151 12.4258 8.00911 12.4779 8.30859 12.5039C8.62109 12.5299 8.9401 12.543 9.26562 12.543C11.2188 12.543 12.7031 12.0938 13.7188 11.1953C14.7344 10.2839 15.2422 8.99479 15.2422 7.32812C15.2422 5.97396 14.7539 4.84766 13.7773 3.94922C12.8138 3.03776 11.1862 2.58203 8.89453 2.58203C7.7487 2.58203 6.48568 2.66667 5.10547 2.83594C3.72526 2.99219 2.37109 3.17448 1.04297 3.38281L0.828125 1.97656C2.10417 1.67708 3.45182 1.41016 4.87109 1.17578C6.29036 0.928385 7.88542 0.804688 9.65625 0.804688C12.8464 0.804688 15.1836 1.37109 16.668 2.50391C18.1523 3.63672 18.8945 5.04297 18.8945 6.72266ZM23.0352 25.1797C22.1758 25.4661 21.2904 25.7201 20.3789 25.9414C19.4805 26.1628 18.7773 26.2734 18.2695 26.2734C17.9049 26.2734 17.5404 26.1693 17.1758 25.9609C16.8112 25.7396 16.5378 25.4857 16.3555 25.1992L10.3984 14.0469L12.7227 12.7578L19.4023 22.9922C19.806 23.5521 20.2487 23.9036 20.7305 24.0469C21.2253 24.1901 21.9154 24.2227 22.8008 24.1445L23.0352 25.1797ZM1.04297 26V24.9648C1.91536 24.7826 2.59245 24.5807 3.07422 24.3594C3.56901 24.138 3.81641 23.9427 3.81641 23.7734V2.28906H7.52734V23.7734C7.52734 23.9297 7.75521 24.125 8.21094 24.3594C8.66667 24.5807 9.36979 24.7826 10.3203 24.9648V26H1.04297ZM42.6242 24.2031C41.5174 24.9583 40.5279 25.5443 39.6555 25.9609C38.7961 26.3776 38.1646 26.5859 37.7609 26.5859C37.2792 26.5859 36.882 26.2474 36.5695 25.5703C36.2701 24.8802 36.1203 23.9557 36.1203 22.7969V12.3867C36.1203 11.5273 35.9055 10.8112 35.4758 10.2383C35.0591 9.65234 34.2648 9.3724 33.093 9.39844C32.3247 9.41146 31.6216 9.65234 30.9836 10.1211C30.3456 10.5898 30.0656 11.2148 30.1437 11.9961C30.1568 12.1263 29.994 12.2695 29.6555 12.4258C29.3299 12.582 28.9263 12.7318 28.4445 12.875C27.9758 13.0182 27.5266 13.1289 27.0969 13.207C26.6802 13.2852 26.3937 13.3047 26.2375 13.2656L25.925 12.4062C26.3286 11.4818 27.0057 10.6289 27.9562 9.84766C28.9198 9.06641 30.0135 8.44141 31.2375 7.97266C32.4745 7.49089 33.7049 7.25 34.9289 7.25C36.4654 7.25 37.6307 7.65365 38.425 8.46094C39.2323 9.25521 39.6359 10.3164 39.6359 11.6445V22.1328C39.6359 23.1484 39.8964 23.6562 40.4172 23.6562C40.5995 23.6562 40.8273 23.6237 41.1008 23.5586C41.3742 23.4805 41.7714 23.3372 42.2922 23.1289L42.6242 24.2031ZM36.3156 16.5664C34.9484 16.7878 33.8807 17.0026 33.1125 17.2109C32.3443 17.4193 31.7583 17.6406 31.3547 17.875C30.951 18.1094 30.6125 18.3633 30.3391 18.6367C30.0005 18.9883 29.7271 19.3789 29.5187 19.8086C29.3104 20.2383 29.2062 20.7461 29.2062 21.332C29.2062 21.9831 29.3234 22.4844 29.5578 22.8359C29.8052 23.1875 30.0852 23.4284 30.3977 23.5586C30.7232 23.6888 30.9966 23.7539 31.218 23.7539C31.9211 23.7539 32.6893 23.5651 33.5227 23.1875C34.356 22.7969 35.287 22.1458 36.3156 21.2344L36.4719 22.9336C35.2479 24.2487 34.0305 25.1862 32.8195 25.7461C31.6086 26.306 30.5604 26.5859 29.675 26.5859C29.0109 26.5859 28.3534 26.4362 27.7023 26.1367C27.0513 25.8372 26.5044 25.3685 26.0617 24.7305C25.632 24.0924 25.4172 23.2721 25.4172 22.2695C25.4172 21.306 25.5865 20.5052 25.925 19.8672C26.2635 19.2161 26.6737 18.6497 27.1555 18.168C27.5721 17.7383 28.093 17.3411 28.718 16.9766C29.343 16.599 30.2414 16.2474 31.4133 15.9219C32.5982 15.5833 34.2323 15.2578 36.3156 14.9453V16.5664ZM56.2758 26.5859C54.6612 26.5859 52.8643 25.7852 50.8852 24.1836V33.1289C50.8852 33.3372 51.126 33.5456 51.6078 33.7539C52.1026 33.9622 52.962 34.1576 54.1859 34.3398V35.375H44.6937V34.3398C45.5531 34.1315 46.2107 33.9297 46.6664 33.7344C47.1352 33.5521 47.3695 33.3503 47.3695 33.1289V12.25C47.3695 11.599 47.3174 11.1042 47.2133 10.7656C47.1091 10.4141 46.8682 10.1667 46.4906 10.0234C46.113 9.86719 45.5141 9.76953 44.6937 9.73047V8.75391C45.7875 8.55859 46.712 8.35026 47.4672 8.12891C48.2224 7.90755 49.0232 7.61458 49.8695 7.25L50.5922 7.97266L50.768 11.3516C52.1221 9.89323 53.3917 8.84505 54.5766 8.20703C55.7745 7.56901 56.7445 7.25 57.4867 7.25C59.2576 7.25 60.7484 8.03776 61.9594 9.61328C63.1703 11.1758 63.7758 13.4154 63.7758 16.332C63.7758 17.5169 63.5544 18.7148 63.1117 19.9258C62.682 21.1237 62.1026 22.2305 61.3734 23.2461C60.6443 24.2487 59.837 25.056 58.9516 25.668C58.0661 26.2799 57.1742 26.5859 56.2758 26.5859ZM55.8266 9.98438C55.3578 9.98438 54.7003 10.2383 53.8539 10.7461C53.0206 11.2409 52.031 12.2044 50.8852 13.6367V21.7422C52.1221 22.6016 53.1443 23.1615 53.9516 23.4219C54.7589 23.6693 55.501 23.793 56.1781 23.793C57.4411 23.793 58.4828 23.2721 59.3031 22.2305C60.1365 21.1888 60.5531 19.6719 60.5531 17.6797C60.5531 16.1172 60.3253 14.763 59.8695 13.6172C59.4268 12.4583 58.8409 11.5664 58.1117 10.9414C57.3956 10.3034 56.6339 9.98438 55.8266 9.98438ZM85.0055 16.5273C85.0055 17.8294 84.7646 19.0794 84.2828 20.2773C83.801 21.4753 83.137 22.5495 82.2906 23.5C81.4443 24.4505 80.4677 25.2057 79.3609 25.7656C78.2672 26.3125 77.1148 26.5859 75.9039 26.5859C74.2112 26.5859 72.7333 26.1823 71.4703 25.375C70.2203 24.5677 69.2503 23.4674 68.5602 22.0742C67.8701 20.681 67.525 19.099 67.525 17.3281C67.525 16.0391 67.7529 14.7956 68.2086 13.5977C68.6773 12.3867 69.3284 11.306 70.1617 10.3555C70.9951 9.39193 71.9651 8.63672 73.0719 8.08984C74.1786 7.52995 75.3766 7.25 76.6656 7.25C78.3453 7.25 79.8102 7.65365 81.0602 8.46094C82.3102 9.26823 83.2802 10.3685 83.9703 11.7617C84.6604 13.1549 85.0055 14.7435 85.0055 16.5273ZM81.3531 17.2109C81.3531 15.8307 81.0992 14.5612 80.5914 13.4023C80.0836 12.2305 79.426 11.2865 78.6188 10.5703C77.8245 9.85417 76.9846 9.49609 76.0992 9.49609C74.8492 9.49609 73.8661 9.8151 73.15 10.4531C72.4469 11.0911 71.9456 11.9635 71.6461 13.0703C71.3466 14.1641 71.1969 15.3945 71.1969 16.7617C71.1969 18.1289 71.4638 19.3919 71.9977 20.5508C72.5445 21.6966 73.2216 22.6146 74.0289 23.3047C74.8362 23.9948 75.6435 24.3398 76.4508 24.3398C78.1956 24.3398 79.4456 23.7018 80.2008 22.4258C80.969 21.1497 81.3531 19.4115 81.3531 17.2109ZM101.489 20.4727C101.489 21.8529 101.209 22.9531 100.649 23.7734C100.102 24.5938 99.4253 25.2057 98.618 25.6094C97.8237 26.013 97.0359 26.2734 96.2547 26.3906C95.4865 26.5208 94.881 26.5859 94.4383 26.5859C93.7482 26.5859 92.9279 26.4688 91.9773 26.2344C91.0398 26.013 90.1349 25.6549 89.2625 25.1602C89.1714 25.1081 89.1062 24.8932 89.0672 24.5156C89.0411 24.125 89.0346 23.6562 89.0477 23.1094C89.0607 22.5625 89.0932 22.0221 89.1453 21.4883C89.2104 20.9414 89.295 20.4857 89.3992 20.1211L90.4734 20.3359C90.6036 21.5339 91.1245 22.5234 92.0359 23.3047C92.9474 24.0859 94.0411 24.4766 95.3172 24.4766C96.2417 24.4766 96.9773 24.2292 97.5242 23.7344C98.0841 23.2396 98.3641 22.5625 98.3641 21.7031C98.3641 20.7786 97.9604 20.0299 97.1531 19.457C96.3589 18.8711 95.1674 18.1615 93.5789 17.3281C92.8497 16.9505 92.1531 16.5404 91.4891 16.0977C90.825 15.6419 90.2781 15.1146 89.8484 14.5156C89.4318 13.9167 89.2234 13.2005 89.2234 12.3672C89.2234 11.2865 89.5164 10.3685 90.1023 9.61328C90.7013 8.84505 91.4695 8.25911 92.407 7.85547C93.3575 7.45182 94.3602 7.25 95.4148 7.25C96.3263 7.25 97.3094 7.38672 98.3641 7.66016C99.4318 7.93359 100.239 8.29818 100.786 8.75391C100.89 8.84505 100.884 9.13151 100.766 9.61328C100.649 10.082 100.486 10.5703 100.278 11.0781C100.083 11.5859 99.9135 11.931 99.7703 12.1133L98.8133 11.957C98.2924 10.9674 97.7 10.2448 97.0359 9.78906C96.3849 9.33333 95.7078 9.10547 95.0047 9.10547C94.1714 9.10547 93.5203 9.33984 93.0516 9.80859C92.5828 10.2643 92.3484 10.7591 92.3484 11.293C92.3484 12.0352 92.7 12.6602 93.4031 13.168C94.1193 13.6758 95.2195 14.3138 96.7039 15.082C97.4591 15.4727 98.2013 15.9023 98.9305 16.3711C99.6727 16.8268 100.285 17.3802 100.766 18.0312C101.248 18.6823 101.489 19.4961 101.489 20.4727ZM122.66 24.2031C121.553 24.9583 120.564 25.5443 119.691 25.9609C118.832 26.3776 118.201 26.5859 117.797 26.5859C117.315 26.5859 116.918 26.2474 116.605 25.5703C116.306 24.8802 116.156 23.9557 116.156 22.7969V12.3867C116.156 11.5273 115.941 10.8112 115.512 10.2383C115.095 9.65234 114.301 9.3724 113.129 9.39844C112.361 9.41146 111.658 9.65234 111.02 10.1211C110.382 10.5898 110.102 11.2148 110.18 11.9961C110.193 12.1263 110.03 12.2695 109.691 12.4258C109.366 12.582 108.962 12.7318 108.48 12.875C108.012 13.0182 107.562 13.1289 107.133 13.207C106.716 13.2852 106.43 13.3047 106.273 13.2656L105.961 12.4062C106.365 11.4818 107.042 10.6289 107.992 9.84766C108.956 9.06641 110.049 8.44141 111.273 7.97266C112.51 7.49089 113.741 7.25 114.965 7.25C116.501 7.25 117.667 7.65365 118.461 8.46094C119.268 9.25521 119.672 10.3164 119.672 11.6445V22.1328C119.672 23.1484 119.932 23.6562 120.453 23.6562C120.635 23.6562 120.863 23.6237 121.137 23.5586C121.41 23.4805 121.807 23.3372 122.328 23.1289L122.66 24.2031ZM116.352 16.5664C114.984 16.7878 113.917 17.0026 113.148 17.2109C112.38 17.4193 111.794 17.6406 111.391 17.875C110.987 18.1094 110.648 18.3633 110.375 18.6367C110.036 18.9883 109.763 19.3789 109.555 19.8086C109.346 20.2383 109.242 20.7461 109.242 21.332C109.242 21.9831 109.359 22.4844 109.594 22.8359C109.841 23.1875 110.121 23.4284 110.434 23.5586C110.759 23.6888 111.033 23.7539 111.254 23.7539C111.957 23.7539 112.725 23.5651 113.559 23.1875C114.392 22.7969 115.323 22.1458 116.352 21.2344L116.508 22.9336C115.284 24.2487 114.066 25.1862 112.855 25.7461C111.645 26.306 110.596 26.5859 109.711 26.5859C109.047 26.5859 108.389 26.4362 107.738 26.1367C107.087 25.8372 106.54 25.3685 106.098 24.7305C105.668 24.0924 105.453 23.2721 105.453 22.2695C105.453 21.306 105.622 20.5052 105.961 19.8672C106.299 19.2161 106.71 18.6497 107.191 18.168C107.608 17.7383 108.129 17.3411 108.754 16.9766C109.379 16.599 110.277 16.2474 111.449 15.9219C112.634 15.5833 114.268 15.2578 116.352 14.9453V16.5664Z" fill="url(#paint0_linear_308_13)"/>
<defs>
<linearGradient id="paint0_linear_308_13" x1="58.5" y1="-33.5" x2="58.5" y2="54" gradientUnits="userSpaceOnUse">
<stop stop-color="#80C5D3"/>
<stop offset="1" stop-color="#17505B"/>
</linearGradient>
</defs>
</svg>
